<svg width="52" height="52" viewBox="0 0 64 64" xmlns="http://www.w3.org/2000/svg"><path d="M48.4984 15.8C47.6984 14.9 46.5984 14.5 45.3984 14.5H16.6984C15.4984 14.5 14.3984 15.5 14.3984 16.8C14.3984 18.1 15.3984 19.1 16.6984 19.1H44.8984L43.7984 25.1H19.2984C18.0984 25.1 16.9984 26.1 16.9984 27.4C16.9984 28.7 17.9984 29.7 19.2984 29.7H43.0984L41.1984 40.4L32.5984 43.5L23.9984 40.2L22.8984 34.7C22.6984 33.5 21.4984 32.7 20.1984 32.9C18.9984 33.1 18.1984 34.3 18.3984 35.6L19.5984 41.6C19.7984 42.8 20.6984 43.8 21.8984 44.2L31.2984 47.6C31.6984 47.7 32.0984 47.8 32.4984 47.8C32.8984 47.8 33.2984 47.7 33.6984 47.6L43.0984 44.2C44.2984 43.8 45.1984 42.7 45.3984 41.5L49.3984 19.2C49.5984 18 49.2984 16.9 48.4984 15.9V15.8Z"/><path d="M58.4994 4.3002C56.9994 2.7002 54.8994 1.7002 52.6994 1.7002H11.2994C9.09944 1.8002 6.99944 2.7002 5.49944 4.3002C3.99944 5.9002 3.29944 8.2002 3.59944 10.3002L8.49944 51.6002C8.89944 54.8002 11.2994 57.5002 14.3994 58.2002L30.1994 62.0002C30.7994 62.1002 31.3994 62.2002 31.9994 62.2002C32.5994 62.2002 33.1994 62.1002 33.7994 62.0002L49.5994 58.3002C52.6994 57.6002 55.0994 54.9002 55.4994 51.7002L60.3994 10.4002C60.5994 8.2002 59.8994 6.0002 58.4994 4.3002ZM55.8994 9.9002L50.9994 51.2002C50.7994 52.5002 49.8994 53.6002 48.4994 54.0002L32.6994 57.7002C32.1994 57.8002 31.6994 57.8002 31.1994 57.7002L15.4994 54.0002C14.1994 53.7002 13.1994 52.6002 12.9994 51.2002L8.09944 9.9002C7.99944 8.9002 8.29944 8.0002 8.89944 7.3002C9.49944 6.6002 10.3994 6.2002 11.2994 6.2002H52.6994C53.5994 6.2002 54.4994 6.6002 55.0994 7.3002C55.6994 8.0002 55.9994 8.9002 55.8994 9.9002Z"/></svg>