<svg width="52" height="52" viewBox="0 0 64 64" xmlns="http://www.w3.org/2000/svg"><path d="M62.5016 31L32.9016 1.3C32.5016 0.9 31.5016 0.9 30.9016 1.3L22.7016 9.5L30.3016 17.1C30.9016 16.8 31.6016 16.7 32.3016 16.7C35.1016 16.7 37.2016 19 37.2016 21.6C37.2016 22.3 37.1016 23 36.8016 23.6L42.9016 29.7C43.5016 29.4 44.2016 29.3 44.9016 29.3C47.7016 29.3 49.8016 31.6 49.8016 34.2C49.8016 37 47.5016 39.1 44.9016 39.1C42.1016 39.1 40.0016 36.8 40.0016 34.2C40.0016 33.5 40.1016 32.8 40.4016 32.2L34.3016 26.1H34.2016V37.6C36.0016 38.4 37.3016 40.1 37.3016 42.2C37.3016 45 35.0016 47.1 32.4016 47.1C29.6016 47.1 27.5016 44.8 27.5016 42.2C27.5016 40.1 28.8016 38.3 30.6016 37.6V26.4C28.8016 25.6 27.5016 23.9 27.5016 21.8C27.5016 21.1 27.6016 20.4 27.9016 19.8L20.3016 12.2L1.40156 31C1.00156 31.4 1.00156 32.4 1.40156 33L31.1016 62.7C31.5016 63.1 32.5016 63.1 33.1016 62.7L62.7016 33C63.0016 32.4 63.0016 31.6 62.5016 31Z"/></svg>