<svg width="52" height="52" viewBox="0 0 64 64" xmlns="http://www.w3.org/2000/svg"><path d="M32.4991 47.3002C31.9991 47.3002 31.5991 47.2002 31.1991 47.0002L23.1991 43.8002C21.9991 43.3002 21.1991 42.3002 20.9991 41.1002L20.0991 36.1002C19.8991 34.9002 20.6991 33.7002 21.8991 33.5002C23.0991 33.3002 24.2991 34.1002 24.4991 35.3002L25.2991 39.8002L32.4991 42.7002L39.6991 39.7002L41.4991 30.8002H22.6991C20.9991 30.8002 19.4991 29.6002 19.1991 27.8002L17.7991 19.8002C17.5991 18.7002 17.8991 17.5002 18.5991 16.6002L18.6991 16.5002C19.4991 15.7002 20.4991 15.2002 21.6991 15.2002H44.8991C46.0991 15.2002 47.1991 16.2002 47.1991 17.5002C47.1991 18.8002 46.1991 19.8002 44.8991 19.8002H22.2991L23.4991 26.4002H42.6991C43.7991 26.4002 44.7991 26.9002 45.4991 27.7002C46.1991 28.5002 46.4991 29.6002 46.1991 30.7002L44.0991 41.0002C43.8991 42.2002 43.0991 43.2002 41.9991 43.6002L33.9991 46.9002C33.4991 47.2002 32.9991 47.3002 32.4991 47.3002Z"/><path d="M32 62.1998C31.4 62.1998 30.8 62.0998 30.2 61.9998L14.4 58.2998C11.3 57.5998 8.90002 54.8998 8.50002 51.6998L3.60002 10.3998C3.40002 8.1998 4.10002 5.9998 5.50002 4.2998C7.00002 2.6998 9.10002 1.7998 11.3 1.7998H52.7C54.9 1.7998 57 2.6998 58.5 4.3998C60 5.9998 60.7 8.2998 60.4 10.3998L55.5 51.6998C55.1 54.8998 52.7 57.5998 49.6 58.2998L33.8 61.9998C33.2 62.1998 32.6 62.1998 32 62.1998ZM11.3 6.2998C10.4 6.2998 9.50002 6.69981 8.90002 7.39981C8.30002 7.99981 8.00002 8.8998 8.10002 9.8998L13 51.1998C13.2 52.4998 14.1 53.5998 15.5 53.9998L31.3 57.6998C31.8 57.7998 32.3 57.7998 32.8 57.6998L48.5 53.9998C49.8 53.6998 50.8 52.5998 51 51.1998L55.9 9.8998C56 8.8998 55.7 7.9998 55.1 7.2998C54.5 6.5998 53.6 6.1998 52.7 6.1998H11.3V6.2998Z"/></svg>