<svg width="52" height="52" viewBox="0 0 64 64" xmlns="http://www.w3.org/2000/svg"><path d="M42.3989 38.9C43.4989 38.1 45.1989 37.4 45.1989 37.4C45.1989 37.4 40.5989 38.2 35.8989 38.7C30.1989 39 24.0989 39.2 20.9989 38.7C13.6989 37.7 24.8989 35 24.8989 35C24.8989 35 20.4989 34.7 14.9989 37.4C8.7989 40.4 30.8989 41.8 42.3989 38.9ZM32.1989 34.9C29.7989 29.7 22.0989 25.2 32.1989 17.3C44.6989 7.3 38.1989 1 38.1989 1C40.8989 11.3 28.9989 14.4 24.7989 20.7C21.8989 24.9 26.2989 29.6 32.1989 34.9ZM45.9989 13.7C45.9989 13.7 24.6989 19.1 34.8989 30.7C37.8989 34.1 34.0989 37.2 34.0989 37.2C34.0989 37.2 41.6989 33.3 38.1989 28.3C34.9989 23.7 32.3989 21.4 45.9989 13.7ZM45.2989 46.3C45.1989 46.4 45.1989 46.4 45.1989 46.6C60.6989 42.5 55.0989 32.1 47.5989 34.8C47.1989 34.9 46.7989 35.2 46.5989 35.6C46.9989 35.5 47.3989 35.3 47.9989 35.2C51.4989 34.5 56.8989 40.3 45.2989 46.3ZM50.8989 53.9C50.8989 53.9 52.5989 55.3 48.8989 56.4C41.8989 58.5 19.7989 59.1 13.5989 56.5C11.2989 55.5 15.5989 54.1 16.7989 53.8C18.1989 53.5 18.8989 53.7 18.8989 53.7C16.4989 52 2.9989 57.1 12.0989 58.5C36.9989 62.7 57.3989 56.9 50.8989 53.9ZM23.8989 48.9C14.4989 51.6 29.6989 57.1 41.7989 51.9C40.6989 51.5 39.3989 50.8 38.3989 50.2C32.8989 51.3 30.4989 51.3 25.5989 50.8C21.4989 50.3 23.8989 48.9 23.8989 48.9ZM45.6989 60.7C36.2989 62.4 24.2989 62.2 17.3989 61.1C17.3989 61.1 18.7989 62.2 26.0989 62.8C37.1989 63.5 54.3989 62.4 54.7989 57C54.7989 57 54.0989 59.2 45.6989 60.7ZM40.2989 43.7C33.0989 45.1 28.8989 45.1 23.6989 44.5C19.5989 44.1 22.2989 42.1 22.2989 42.1C11.8989 45.6 28.0989 49.6 42.8989 45.2C41.9989 44.9 41.1989 44.4 40.2989 43.7Z"/></svg>