<svg width="52" height="52" viewBox="0 0 64 64" xmlns="http://www.w3.org/2000/svg"><path d="M51.6 22.5996C50.9 22.4996 50.3 22.1996 49.6 21.9996C49.7 21.5996 49.7 21.1996 49.9 20.5996C51.3 13.3996 50.3 7.69964 47.1 5.69964C43.9 3.89964 38.7 5.79964 33.5 10.2996C33.1 10.6996 32.4 11.0996 32 11.6996C31.7 11.3996 31.3 11.0996 31 10.6996C25.5 5.79964 20.1 3.79964 16.7 5.69964C13.5 7.49964 12.5 12.9996 13.9 19.6996C14 20.3996 14.2 21.0996 14.3 21.6996C13.6 21.7996 12.8 22.0996 12.1 22.3996C5.6 24.6996 1 28.3996 1 31.8996C1 35.6996 5.9 39.4996 12.6 41.6996C13.2 41.7996 13.7 42.0996 14.3 42.0996C14.2 42.7996 13.9 43.4996 13.9 44.2996C12.6 50.8996 13.6 56.1996 16.8 57.9996C20 59.9996 25.6 57.9996 30.8 53.1996C31.2 52.7996 31.6 52.4996 32.1 52.0996C32.5 52.4996 33.2 53.0996 33.8 53.4996C38.8 57.9996 44 59.7996 47.3 57.9996C50.5 55.9996 51.6 50.3996 50.2 43.3996C50.1 42.9996 50.1 42.2996 49.8 41.6996C50.2 41.5996 50.5 41.5996 50.9 41.2996C57.9 39.1996 63 35.3996 63 31.5996C62.9 28.4996 58.1 24.8996 51.6 22.5996ZM35.2 12.3996C39.7 8.49964 43.9 7.09964 45.9 8.09964C47.9 9.19964 48.7 13.9996 47.4 20.2996C47.3 20.6996 47.3 20.9996 47.1 21.5996C44.4 20.9996 41.8 20.4996 39 20.2996C37.5 18.0996 35.8 15.7996 34 13.9996C34.4 13.1996 34.8 12.7996 35.2 12.3996ZM21.3 38.2996C21.9 39.3996 22.6 40.3996 23.3 41.3996C21.3 41.2996 19.5 40.9996 17.7 40.5996C18.1 38.8996 18.8 37.0996 19.7 35.2996C20.1 36.1996 20.8 37.3996 21.3 38.2996ZM17.7 23.8996C19.4 23.4996 21.2 23.1996 23.2 22.8996C22.5 23.8996 21.9 24.8996 21.4 25.9996C20.9 27.0996 20.3 27.9996 19.7 29.1996C18.8 27.2996 18.3 25.5996 17.7 23.8996ZM20.9 32.1996C21.6 30.4996 22.6 28.9996 23.6 27.2996C24.6 25.5996 25.6 24.0996 26.5 22.4996C28.3 22.3996 30.1 22.3996 32 22.3996C33.8 22.3996 35.8 22.4996 37.5 22.4996C38.6 23.9996 39.5 25.5996 40.4 27.0996C41.4 28.5996 42.2 30.2996 43.1 31.9996C42.4 33.6996 41.4 35.1996 40.4 36.8996C39.4 38.5996 38.4 40.0996 37.5 41.6996C35.7 41.7996 33.9 41.7996 31.9 41.7996C29.9 41.7996 28.1 41.6996 26.4 41.6996C25.3 40.1996 24.4 38.5996 23.5 36.8996C22.6 35.1996 21.8 33.8996 20.9 32.1996ZM42.7 38.2996C43.3 37.1996 43.8 36.1996 44.4 35.0996C45.1 36.7996 45.8 38.5996 46.4 40.3996C44.6 40.7996 42.6 41.0996 40.6 41.3996C41.4 40.3996 42.1 39.2996 42.7 38.2996ZM44.5 29.0996C43.9 27.9996 43.4 26.9996 42.8 25.8996C42.2 24.7996 41.5 23.8996 41 22.9996C43 23.2996 44.8 23.5996 46.5 23.9996C45.9 25.6996 45.2 27.3996 44.5 29.0996ZM32 15.5996C33.3 16.9996 34.4 18.3996 35.5 19.8996C33.1 19.7996 30.7 19.7996 28.3 19.8996C29.6 18.2996 30.9 16.8996 32 15.5996ZM18 8.19964C20 7.09964 24.6 8.59964 29.2 12.9996C29.5 13.2996 29.8 13.5996 30.2 13.7996C28.4 15.7996 26.7 17.9996 25 20.0996C22.3 20.3996 19.5 20.7996 16.9 21.3996C16.8 20.7996 16.6 20.0996 16.5 19.5996C15.4 13.6996 16.1 9.29964 18 8.19964ZM15.2 39.9996C14.8 39.8996 14.2 39.6996 13.7 39.5996C11 38.8996 8.2 37.4996 6 35.7996C4.6 34.7996 3.9 33.5996 3.6 32.1996C3.6 29.9996 7.5 27.1996 13 25.1996C13.7 24.8996 14.4 24.7996 15.1 24.4996C15.9 27.1996 16.9 29.6996 18 32.1996C17 34.6996 15.9 37.1996 15.2 39.9996ZM29.1 51.6996C27.1 53.4996 24.8 54.8996 22.2 55.8996C20.8 56.5996 19.3 56.5996 18 55.9996C16 54.8996 15.3 50.6996 16.3 44.8996C16.4 44.1996 16.6 43.4996 16.7 42.8996C19.4 43.4996 22.2 43.8996 24.8 43.9996C26.3 46.1996 28.2 48.4996 30 50.4996C29.9 51.0996 29.5 51.3996 29.1 51.6996ZM32.1 48.8996C30.8 47.4996 29.7 46.0996 28.5 44.5996C29.6 44.5996 30.7 44.6996 32 44.6996C33.3 44.6996 34.5 44.6996 35.6 44.5996C34.5 45.8996 33.4 47.2996 32.1 48.8996ZM47.9 52.3996C47.8 53.7996 47.1 55.2996 45.9 56.1996C43.9 57.2996 39.9 55.8996 35.5 51.9996C35.1 51.5996 34.5 51.1996 34 50.5996C35.8 48.5996 37.5 46.3996 39 44.0996C41.8 43.9996 44.5 43.3996 47.1 42.7996C47.2 43.1996 47.2 43.7996 47.4 44.1996C48.1 46.9996 48.1 49.7996 47.9 52.3996ZM50.1 39.4996C49.8 39.5996 49.4 39.5996 49 39.7996C48.2 37.0996 47 34.5996 45.9 32.0996C47 29.6996 48 27.0996 48.8 24.4996C49.5 24.5996 50.1 24.8996 50.6 25.0996C56.2 27.0996 60.1 29.8996 60.1 32.0996C60.2 34.3996 56.1 37.4996 50.1 39.4996ZM32 37.5996C35.1 37.5996 37.5 35.0996 37.5 32.0996C37.5 29.0996 35 26.5996 32 26.5996C29.1 26.5996 26.5 29.0996 26.5 32.0996C26.5 35.0996 28.9 37.5996 32 37.5996Z"/></svg>