<svg width="52" height="52" viewBox="0 0 64 64" xmlns="http://www.w3.org/2000/svg"><path fill-rule="evenodd" clip-rule="evenodd" d="M17.5857 26C19.5546 18.0003 24.4783 14 32.3549 14C44.1703 14 45.6472 23 51.5549 24.5C55.4936 25.5003 58.9395 24.0003 61.8934 20C59.9244 27.9997 55.0007 32 47.1241 32C35.3087 32 33.8318 23 27.9241 21.5C23.9854 20.4997 20.5395 21.9997 17.5857 26ZM2.81641 44C4.78532 36.0003 9.70902 32 17.5857 32C29.401 32 30.878 41 36.7857 42.5C40.7244 43.5003 44.1703 42.0003 47.1241 38C45.1552 45.9997 40.2315 50 32.3549 50C20.5395 50 19.0626 41 13.1549 39.5C9.21609 38.4997 5.77025 39.9997 2.81641 44Z"/></svg>